Coordinates
version=1
nRows=16
nColumns=33
inDegrees=yes

Units are S.I. units (second, meters, Newtons, ...)
Angles are in degrees.

endheader
time	ground_thorax_rot_x	ground_thorax_rot_y	ground_thorax_rot_z	ground_thorax_tx	ground_thorax_ty	ground_thorax_tz	clav_prot_r	clav_elev_r	scapula_abduction_r	scapula_elevation_r	scapula_upward_rot_r	scapula_winging_r	shoulder_elv_r	plane_of_elev_r	axial_rot_r	elbow_flexion_r	pro_sup_r	wrist_flex_r	wrist_dev_r	clav_prot_l	clav_elev_l	scapula_abduction_l	scapula_elevation_l	scapula_upward_rot_l	scapula_winging_l	shoulder_elv_l	plane_of_elev_l	axial_rot_l	elbow_flexion_l	pro_sup_l	wrist_flex_l	wrist_dev_l
      3.30000000	    -41.13859738	     -7.76557314	      5.32090415	   -206.47294365	    883.50779882	     -6.56366802	     10.26866971	    -45.00000000	     35.27089443	    -45.00000000	    -45.00000000	   1699.41457234	  -2268.67535350	    149.12570006	    -94.69056342	    736.16432637	     59.75745405	     17.94151140	      5.21520490	     15.38843531	     38.19225425	    -37.36640501	    -45.00000000	    -45.00000000	   -633.48792320	  -1896.65157393	    140.31963573	    158.03306921	   1451.65399465	   -318.27711407	      7.30332270	    -22.60341863
      3.31000000	    -41.06498335	     -7.47053471	      5.20913263	   -207.45052233	    885.36032047	     -6.55413669	     10.40163330	    -45.00000000	     35.26996544	    -45.00000000	    -45.00000000	   1699.29033069	  -2268.58511465	    148.99845529	    -94.45703888	    736.28770159	     59.71390721	     17.81812991	      4.92919321	     15.07314557	     38.26399256	    -37.25594222	    -45.00000000	    -45.00000000	   -633.24957552	  -1896.61644393	    140.20095964	    157.57951917	   1451.69505870	   -318.10142935	      7.17594445	    -22.70730307
      3.32000000	    -40.98041690	     -7.07951264	      5.04845339	   -208.13204195	    886.95219561	     -6.51058877	     10.27977601	    -45.00000000	     35.49581906	    -45.00000000	    -44.32864984	   1699.26608547	  -2268.55000849	    149.28801547	    -94.80350822	    736.27961869	     59.70522525	     17.83570719	      4.90971391	     14.95084116	     38.61141605	    -37.40245284	    -45.00000000	    -45.00000000	   -633.24119462	  -1896.59612246	    140.42115905	    157.38654052	   1451.90619659	   -317.99069939	      7.25684469	    -22.90070958
      3.33000000	    -40.84762644	     -6.75259439	      5.03093804	   -208.53628622	    888.29495759	     -6.43465726	     10.39602455	    -45.00000000	     35.46801994	    -45.00000000	    -44.92043757	   1699.16277842	  -2268.59049123	    148.97595336	    -95.01788245	    736.20113346	     59.67792689	     17.64244779	      4.79841124	     14.96334568	     38.33756790	    -37.36478979	    -45.00000000	    -45.00000000	   -633.30649026	  -1896.58847596	    140.43516124	    157.39478115	   1451.87794655	   -317.91941013	      7.26016454	    -22.94123851
      3.34000000	    -40.81816054	     -6.64992322	      4.99411736	   -208.67947556	    889.39997366	     -6.33072813	     10.49883382	    -45.00000000	     35.41640748	    -45.00000000	    -45.00000000	   1699.12751156	  -2268.45295231	    148.80043954	    -95.45596928	    736.38539304	     59.62685239	     17.71635311	      4.77951776	     15.02599832	     38.22449247	    -37.25459139	    -45.00000000	    -45.00000000	   -633.09404060	  -1896.52000721	    140.31615046	    157.29881318	   1451.89797139	   -317.87567082	      7.21332437	    -22.92469354
      3.35000000	    -40.71279113	     -6.44335347	      4.97903962	   -208.57994277	    890.28721083	     -6.20425554	     10.53933359	    -45.00000000	     35.56665558	    -45.00000000	    -44.77693772	   1699.06443757	  -2268.45302332	    148.84394081	    -95.50919228	    736.34872158	     59.57412400	     17.62805947	      4.71856051	     15.00504268	     38.18982832	    -37.28170417	    -45.00000000	    -45.00000000	   -633.23327516	  -1896.54296911	    140.51682828	    157.26807700	   1451.95517675	   -317.84591170	      7.16101236	    -22.94162854
      3.36000000	    -40.62811238	     -6.38345470	      5.07874578	   -208.25485712	    890.98582375	     -6.06000651	     10.59579203	    -45.00000000	     35.54198311	    -45.00000000	    -44.97539882	   1699.09837739	  -2268.39690758	    148.73736498	    -95.61656235	    736.38580708	     59.51085816	     17.63887105	      4.70210458	     15.02422901	     38.14388360	    -37.20232694	    -45.00000000	    -45.00000000	   -633.09497565	  -1896.50889381	    140.38870335	    157.06213216	   1452.01653987	   -317.80380523	      7.15115348	    -22.95768647
      3.37000000	    -40.53586077	     -6.20702424	      5.06640522	   -207.72545222	    891.51624638	     -5.90414383	     10.62525091	    -45.00000000	     35.66006778	    -45.00000000	    -44.84857872	   1699.05430288	  -2268.35752504	    148.73525504	    -95.92057385	    736.40252145	     59.43846771	     17.56767326	      4.62591388	     15.00236989	     38.14730845	    -37.29360672	    -45.00000000	    -45.00000000	   -633.21655406	  -1896.53719305	    140.61937639	    156.84291075	   1452.14646871	   -317.76664780	      7.03700677	    -22.95001901
      3.38000000	    -40.49901643	     -6.15110660	      5.09039206	   -207.01255435	    891.91108534	     -5.74003017	     10.68266636	    -45.00000000	     35.68810142	    -45.00000000	    -44.78559889	   1699.10411972	  -2268.29720234	    148.66209674	    -95.99826135	    736.45237102	     59.39921248	     17.63676134	      4.62823610	     15.06998669	     38.10349005	    -37.25042476	    -45.00000000	    -45.00000000	   -633.01518430	  -1896.50912202	    140.44829187	    156.72337331	   1452.23422264	   -317.70641709	      6.97263554	    -22.93128754
      3.39000000	    -40.49963549	     -5.96711294	      4.98223898	   -206.14435810	    892.19917180	     -5.57105498	     10.66533090	    -45.00000000	     35.88213552	    -45.00000000	    -44.48430065	   1699.09674688	  -2268.31034496	    148.65754376	    -96.20681212	    736.66871000	     59.35234093	     17.51666749	      4.43870034	     15.00270188	     38.17392292	    -37.54725204	    -45.00000000	    -45.00000000	   -633.26533338	  -1896.53568025	    140.99639250	    156.61548089	   1452.49091196	   -317.63022066	      6.85613317	    -22.99381712
      3.40000000	    -40.43766893	     -5.97258464	      5.12252841	   -205.14895035	    892.41125329	     -5.39791687	     10.65623073	    -45.00000000	     35.80274047	    -45.00000000	    -44.63691445	   1699.18027431	  -2268.21465180	    148.58431311	    -96.17164447	    736.59535005	     59.42168885	     17.70042499	      4.56053029	     15.06915747	     38.09832206	    -37.32331128	    -45.00000000	    -45.00000000	   -633.01452914	  -1896.42600517	    140.46281246	    156.65741189	   1452.44982395	   -317.47151838	      6.73817266	    -22.86560986
      3.41000000	    -40.38402189	     -5.88849701	      5.13495312	   -204.06078356	    892.57683743	     -5.22085124	     10.76373333	    -45.00000000	     35.94959940	    -45.00000000	    -44.40212830	   1699.16666683	  -2268.22227458	    148.58482822	    -96.33610060	    736.57935585	     59.53895042	     17.66048733	      4.49707154	     14.79923674	     37.99769521	    -37.32771117	    -45.00000000	    -45.00000000	   -633.20825666	  -1896.37144511	    140.57321679	    156.77606584	   1452.51004415	   -317.23247577	      6.59172172	    -22.81770455
      3.42000000	    -40.29564447	     -5.96709992	      5.27285586	   -202.90780316	    892.72530044	     -5.03815761	     10.87310691	    -45.00000000	     36.17676346	    -45.00000000	    -44.17192722	   1699.13629755	  -2268.25217415	    148.68190045	    -96.41202373	    736.53398041	     59.72969527	     17.64836042	      4.44403497	     14.66276221	     37.99310592	    -37.16315128	    -45.00000000	    -45.00000000	   -633.45222063	  -1896.20046659	    140.58639264	    156.93465708	   1452.58851556	   -316.94061993	      6.46548899	    -22.79945388
      3.43000000	    -40.34028780	     -5.76361467	      5.14211971	   -201.71914200	    892.88466140	     -4.84977857	     10.67553247	    -45.00000000	     35.96429932	    -45.00000000	    -43.96558194	   1699.35833374	  -2268.05707533	    148.61317007	    -96.43106728	    736.62320274	     59.97810359	     17.68545874	      4.38587951	     14.92312163	     38.07375682	    -37.20338562	    -45.00000000	    -45.00000000	   -633.34562178	  -1895.98140483	    140.31561282	    156.88514571	   1452.62448788	   -316.58654452	      6.34947810	    -22.76035461
      3.44000000	    -40.26918723	     -5.73465311	      5.16226792	   -200.51458537	    893.08198361	     -4.65684069	     10.71320754	    -45.00000000	     36.28338297	    -45.00000000	    -43.69379561	   1699.23689678	  -2268.04707347	    148.58523174	    -96.45033627	    736.67708370	     60.31301337	     17.72567953	      4.35556564	     14.71457460	     37.99929513	    -37.21062785	    -45.00000000	    -45.00000000	   -633.54585259	  -1895.94861287	    140.41529468	    157.02521081	   1452.72335062	   -316.18071329	      6.18682843	    -22.71611346
      3.45000000	    -40.28837695	     -5.55529333	      4.93172341	   -199.30023673	    893.34401659	     -4.46252433	     10.79267969	    -45.00000000	     36.43588205	    -45.00000000	    -43.21184965	   1699.31580860	  -2268.06287817	    148.53881495	    -96.40659801	    736.81487686	     60.76031883	     17.76158504	      4.30300071	     14.72245538	     38.04403419	    -37.59206881	    -45.00000000	    -45.00000000	   -633.37943388	  -1896.14498422	    140.43118442	    157.15103477	   1452.82893576	   -315.66135873	      6.08275495	    -22.71493214
